<svg width="105" height="40" viewBox="0 0 105 40" fill="none" xmlns="http://www.w3.org/2000/svg">
<path d="M5.26441 0.000260638L0.933594 4.24012V15.6318L4.69833 19.4758H6.42472C6.3886 19.5495 6.37174 19.6312 6.3757 19.7133C6.37967 19.7953 6.40433 19.875 6.44739 19.9449C6.4988 20.0116 6.5662 20.0644 6.64337 20.0982C6.72053 20.132 6.80498 20.1458 6.88889 20.1383C7.04244 20.134 7.19556 20.12 7.34733 20.0963H7.34994C7.34994 20.0963 7.44037 20.1766 7.16489 20.267C7.0536 20.2947 6.95076 20.3492 6.86532 20.4257C6.77987 20.5021 6.71442 20.5984 6.67466 20.7059C6.67023 20.7226 6.66866 20.7401 6.66449 20.7547H0.935418L0.933594 26.5781L5.26441 30.8331H16.6538L20.9846 26.5849V15.6704L17.2191 11.8332H14.0272C14.0254 11.833 14.0237 11.8325 14.0222 11.8316C13.8815 11.7474 13.7355 11.6588 13.6052 11.5726L13.5565 11.5415L13.5481 11.5366C13.4673 11.4864 13.3908 11.4295 13.3193 11.3667C13.2563 11.3173 13.1978 11.2624 13.1444 11.2027L13.1319 11.1902C13.0563 11.1118 12.9847 11.0296 12.9174 10.9439C13.3427 11.0564 13.7795 11.1193 14.2192 11.1313H14.2479C14.2646 11.1313 14.2821 11.1339 14.2967 11.1339L14.3193 11.1355C14.3679 11.1383 14.416 11.147 14.4624 11.1616C14.496 11.1741 14.526 11.1894 14.5531 11.202L14.6876 11.2525C14.7206 11.2603 14.7545 11.2637 14.7885 11.2627C14.8865 11.2617 14.9821 11.2327 15.0641 11.179C15.1461 11.1253 15.211 11.0493 15.2511 10.9598C15.2994 10.8481 15.3126 10.7243 15.2889 10.6049L20.9838 10.609V4.2469L16.6551 0H5.26571L5.26441 0.000260638Z" fill="white"/>
<path d="M20.4671 4.47152L16.4454 0.525391H5.47328L1.44948 4.46501V15.416L4.91189 18.9472L7.14441 18.9493C6.97249 19.103 6.84542 19.3004 6.77667 19.5206C6.6904 19.7708 6.59996 19.8422 7.38419 19.733C7.70561 19.6739 8.01429 19.5592 8.29638 19.3942C8.50488 19.2511 8.91641 19.3681 8.8807 19.6759C8.77455 19.9023 8.61176 20.0975 8.40808 20.2426C8.2044 20.3877 7.96673 20.4778 7.71805 20.5042C6.62915 20.6407 7.10011 21.0465 7.10011 21.0465C7.19901 21.1126 7.28875 21.1915 7.36699 21.2811H6.83635V21.279H1.45156L1.44922 26.3521L5.47093 30.3045H16.4451L20.4671 26.3583V15.889L17.0044 12.3614H14.2063C13.9835 12.2121 13.6827 12.0461 13.4096 11.8663C13.4096 11.8642 13.4096 11.8642 13.4075 11.8642C13.2983 11.7998 13.1955 11.7252 13.1005 11.6413C13.0223 11.5794 12.9491 11.5112 12.8818 11.4375C12.693 11.2507 12.5341 11.0359 12.4109 10.8006C12.3204 10.5777 12.3415 10.296 12.5454 10.4117C13.0624 10.7101 13.9118 10.7669 14.2272 10.7766C14.3451 10.785 14.4624 10.8012 14.5782 10.8248C14.6413 10.8509 14.738 10.8962 14.738 10.8962C14.8662 10.9509 15.0974 10.7742 14.8305 10.4485C14.7433 10.3157 14.6434 10.1918 14.5321 10.0784H20.4671V4.47152Z" fill="white"/>
<path d="M5.68045 1.0513L1.9668 4.69042V15.1965L5.12845 18.4217H8.09697C8.60363 18.1992 8.71075 18.2182 8.85279 17.9344C8.88307 17.8363 8.89793 17.7341 8.89683 17.6315C8.90309 17.5956 8.96642 17.2124 8.78112 17.3057C8.46368 17.4653 7.82254 17.0451 7.34298 17.2948C6.86343 17.5445 7.21476 16.9669 7.282 16.8676C7.46161 16.644 7.67937 16.454 7.92522 16.3062C7.93872 16.2989 7.95139 16.2902 7.96301 16.2802C8.0008 16.2591 8.03886 16.2411 8.07873 16.2221C8.53678 15.9788 8.96737 15.6871 9.36309 15.3518C9.48519 15.2215 9.57327 15.063 9.61955 14.8905C9.64561 14.7792 9.66803 14.6038 9.56091 14.5337C9.40115 14.4295 9.27266 14.6341 9.02272 14.7464C8.81569 14.8465 8.59025 14.9028 8.36047 14.9119C8.14623 14.9189 7.94008 14.8366 7.81185 14.8559C7.68362 14.8752 7.60778 14.7798 7.84339 14.5431C7.90656 14.4743 7.97477 14.4103 8.04746 14.3516C8.60676 13.9927 9.10898 13.9885 9.39072 13.351C9.39072 13.351 9.60939 12.7795 9.18691 13.0231C8.90205 13.2605 8.53606 13.3778 8.1663 13.3502C7.97078 13.3345 7.77439 13.3673 7.59464 13.4459C7.41489 13.5244 7.25735 13.6462 7.13605 13.8003C7.13605 13.8003 6.68621 14.429 6.79723 13.5478C6.90826 12.6666 7.08106 12.2215 7.49519 11.8785C7.85251 11.5848 8.73968 11.1896 9.05894 10.7547C9.22288 10.5923 9.63493 10.1211 9.39541 9.72206C9.29455 9.5537 9.04852 9.98972 8.79415 10.0458C8.49215 10.1484 8.17208 10.187 7.85433 10.1591C7.6132 10.1144 7.36405 10.1578 7.15221 10.2814C7.02189 10.3405 6.77586 10.1531 7.07636 9.81041C7.48007 9.35015 8.4556 8.74888 9.11159 8.38922C9.28927 8.31542 9.46078 8.22757 9.6245 8.12651C9.62778 8.12442 9.63139 8.12292 9.63519 8.12208C9.69936 8.09409 9.75618 8.05163 9.80121 7.99802C9.94429 7.87813 10.0431 7.74365 10.0097 7.60708C9.98026 7.48302 9.91927 7.44106 9.72589 7.41995C9.57238 7.4051 9.31827 7.58389 9.10377 7.56721C8.77591 7.53984 8.29427 7.61542 8.45403 7.38216C8.57695 7.21908 8.73404 7.08485 8.9143 6.98888C9.04878 6.92789 9.22965 6.84814 9.4968 6.72825C9.9151 6.53904 9.8562 6.06392 9.69435 6.04724C9.44206 6.01987 8.76105 6.23828 9.24008 5.69174C9.38055 5.55218 9.53329 5.42553 9.69643 5.31331C9.85873 5.22674 10.0291 5.15629 10.2052 5.10299C10.3167 5.06311 10.6091 4.80457 9.9151 4.77721C9.9151 4.77721 9.52807 4.78763 9.60235 4.6091C9.71839 4.47847 9.85385 4.36648 10.004 4.27707C10.1385 4.18584 10.267 4.08608 10.3887 3.97839C10.4958 3.87414 10.5711 3.79335 10.5651 3.70082C10.5609 3.59657 10.2875 3.46626 10.1718 3.31822C10.09 3.21397 10.1593 3.1754 10.2054 3.16185C10.2353 3.15654 10.2655 3.15375 10.2959 3.15351C10.5776 3.15559 10.6574 2.87386 10.8218 2.14228C10.87 1.92362 10.8739 1.87749 10.9451 1.8754C10.9521 1.8754 10.956 1.87749 10.9602 1.87749C10.9602 1.87749 11.0293 2.24731 11.1307 2.66171C11.2169 2.8908 11.311 2.98749 11.4776 2.98541C11.5072 2.98565 11.5367 2.98844 11.5659 2.99375C11.612 3.00626 11.6832 3.04431 11.599 3.15012C11.5359 3.23222 11.3472 3.36462 11.3324 3.44437C11.2782 3.67137 11.4948 3.75347 11.7155 3.77015C12.0283 3.791 11.8979 3.98673 11.5591 4.23667C11.2333 4.47827 12.0673 4.99561 12.0673 4.99561C12.5425 5.36362 12.2037 5.45796 12.1075 5.51061C12.0113 5.56325 11.7426 5.7251 12.0103 5.83014C12.2471 5.9539 12.463 6.11424 12.6498 6.30526C13.1271 6.85257 12.4473 6.63547 12.1956 6.66075C12.0332 6.67743 11.9751 7.15464 12.3931 7.34176C12.7454 7.47141 13.0818 7.64069 13.3958 7.84634C13.8159 8.15752 13.5933 8.42232 13.0679 8.3298C12.8811 8.28342 12.6876 8.27062 12.4963 8.29201C12.3864 8.30894 12.2794 8.3415 12.1786 8.3887C12.1427 8.44343 12.0593 8.65975 12.7903 8.88389C13.2138 9.04236 13.6081 9.26974 13.9574 9.55682L19.9539 9.55057V4.69224L16.2387 1.05078H5.68045V1.0513ZM14.7359 12.8868C14.9321 13.2622 15.0501 13.6735 15.0828 14.0959C15.0849 14.4258 14.6496 14.2653 14.5094 14.179C14.3886 14.0987 14.254 14.0413 14.1125 14.0096C13.7948 13.9335 13.0387 13.6015 12.8323 13.5275C12.7616 13.5009 12.6839 13.5002 12.6127 13.5253C12.5415 13.5504 12.4815 13.5998 12.4432 13.6648H12.4453C12.391 13.7651 12.5023 13.9677 12.5023 13.9677C12.7992 14.6403 13.3455 14.6044 13.9459 15.0362C14.7721 15.6247 14.3309 15.749 14.1604 15.6617C14.0182 15.6086 13.8639 15.5967 13.7153 15.6276C13.0486 15.81 12.849 15.5332 12.458 15.43C12.0671 15.3268 12.389 15.809 12.5292 15.9703C12.924 16.3057 13.3539 16.5975 13.8115 16.8405C14.0961 16.9722 14.3483 17.165 14.55 17.4052C14.7517 17.6454 14.898 17.927 14.9785 18.2302C15.1659 18.8088 14.9616 18.6824 14.8102 18.6112C14.6587 18.5401 14.6147 18.3837 14.2386 18.3926C14.087 18.4136 13.9328 18.4039 13.785 18.3641C13.6373 18.3243 13.499 18.2552 13.3786 18.1609C13.315 18.1091 13.256 18.0521 13.2021 17.9904C13.1991 17.9889 13.1963 17.9869 13.194 17.9844C12.9355 17.7869 12.9855 18.4426 13.0377 18.55C13.2243 18.9261 13.3504 18.7725 14.4273 19.347C14.5894 19.4253 14.7338 19.536 14.8515 19.6722C14.9692 19.8084 15.0579 19.9673 15.112 20.139C15.1982 20.3876 15.2863 20.4588 14.5045 20.3496C14.1819 20.2922 13.8722 20.1774 13.5902 20.0108C13.3845 19.8685 12.9707 19.9847 13.0077 20.2925C13.1138 20.519 13.2766 20.7143 13.4803 20.8593C13.6841 21.0044 13.9218 21.0944 14.1706 21.1205C14.5847 21.1726 14.7721 21.2639 14.8482 21.3551C15.0747 21.6139 14.6548 21.9928 14.6548 21.9928C14.4443 22.2365 14.6718 22.5222 14.8274 22.6063C15.0799 22.7346 15.5694 23.0286 15.7317 23.4495C16.5809 25.6351 15.7578 25.0085 15.3567 24.7589C14.9556 24.5092 14.1857 23.8654 13.4859 23.9217C12.7862 23.978 12.5526 24.015 12.1364 23.684C11.7202 23.353 11.7624 23.8886 11.7624 23.8886V26.5243C11.742 27.1262 11.9587 27.712 12.366 28.1556C12.7499 28.5497 13.0437 28.4754 13.5852 29.1382C13.8349 29.4428 14.6509 29.7707 15.1954 29.7767L16.24 29.7788L19.9547 26.1355V16.105L16.7943 12.8868H14.7354H14.7359ZM1.96888 21.8068L1.9668 26.1269L5.68045 29.7725H6.87464C7.99742 29.7173 8.41781 28.847 8.75818 28.313C9.05412 27.9309 9.38881 27.5805 9.7569 27.2674C10.0616 26.9585 10.1163 26.2509 10.1246 25.4868V23.8881L10.1267 23.9043V23.5222H10.1288V23.2676V22.5196C10.1288 22.359 9.94377 22.347 9.54032 22.7844C9.13687 23.2217 8.4556 23.1834 8.06257 23.2196C7.66955 23.2558 6.53843 23.8451 6.21448 24.2663C6.01484 24.529 5.73101 24.3124 5.84647 23.7951H5.8423C5.92616 23.4681 6.03222 23.1472 6.15974 22.8347C6.38258 22.2571 7.21919 21.9183 7.21919 21.9183C7.27866 21.89 7.33328 21.8524 7.38104 21.807H1.96888V21.8068Z" fill="#191C1F"/>
<path d="M30.683 4.85843C30.6415 4.4402 30.4635 4.1153 30.149 3.88372C29.8345 3.65214 29.4076 3.53635 28.8684 3.53635C28.502 3.53635 28.1927 3.58819 27.9403 3.69189C27.688 3.79212 27.4945 3.93211 27.3597 4.11184C27.2283 4.29158 27.1626 4.49551 27.1626 4.72363C27.1557 4.91374 27.1955 5.07965 27.2819 5.22136C27.3718 5.36307 27.4945 5.48578 27.65 5.58947C27.8055 5.68971 27.9853 5.77785 28.1892 5.85389C28.3931 5.92647 28.6109 5.98869 28.8425 6.04054L29.7964 6.26866C30.2596 6.37235 30.6848 6.51061 31.0719 6.68343C31.459 6.85626 31.7943 7.06883 32.0777 7.32115C32.3611 7.57347 32.5806 7.87072 32.7362 8.21291C32.8951 8.5551 32.9764 8.9474 32.9798 9.38983C32.9764 10.0396 32.8105 10.603 32.4821 11.08C32.1572 11.5536 31.6871 11.9217 31.0719 12.1844C30.4601 12.4436 29.7221 12.5732 28.858 12.5732C28.0008 12.5732 27.2542 12.4419 26.6183 12.1792C25.9857 11.9165 25.4915 11.5276 25.1354 11.0126C24.7829 10.4942 24.598 9.85299 24.5807 9.08912H26.7531C26.7772 9.44513 26.8792 9.74238 27.0589 9.98088C27.2421 10.2159 27.4858 10.3939 27.79 10.5149C28.0976 10.6324 28.445 10.6912 28.8321 10.6912C29.2123 10.6912 29.5424 10.6359 29.8224 10.5253C30.1058 10.4147 30.3253 10.2608 30.4808 10.0638C30.6364 9.86681 30.7141 9.64042 30.7141 9.38464C30.7141 9.14615 30.6433 8.94567 30.5016 8.78322C30.3633 8.62077 30.1594 8.48251 29.8898 8.36845C29.6236 8.25439 29.297 8.15069 28.9099 8.05737L27.7537 7.76703C26.8585 7.54927 26.1516 7.20881 25.6332 6.74565C25.1147 6.28249 24.8572 5.6586 24.8607 4.87399C24.8572 4.23109 25.0283 3.66942 25.3739 3.18897C25.723 2.70853 26.2018 2.3335 26.8101 2.0639C27.4184 1.7943 28.1097 1.6595 28.8839 1.6595C29.672 1.6595 30.3598 1.7943 30.9474 2.0639C31.5385 2.3335 31.9982 2.70853 32.3266 3.18897C32.6549 3.66942 32.8243 4.2259 32.8347 4.85843H30.683ZM34.0855 3.65559V1.80467H42.8061V3.65559H39.5553V12.4229H37.3362V3.65559H34.0855ZM44.7749 12.4229H42.3692L46.0348 1.80467H48.9278L52.5882 12.4229H50.1825L47.5228 4.23109H47.4398L44.7749 12.4229ZM44.6246 8.2492H50.307V10.0016H44.6246V8.2492ZM62.7476 1.80467V12.4229H60.8085L56.189 5.73983H56.1112V12.4229H53.8662V1.80467H55.8364L60.4196 8.48251H60.513V1.80467H62.7476ZM64.6024 12.4229V1.80467H71.6328V3.65559H66.8473V6.18571H71.1661V8.03663H66.8473V12.4229H64.6024ZM82.9003 7.11376C82.9003 8.27167 82.6808 9.25675 82.2419 10.069C81.8064 10.8813 81.2119 11.5017 80.4583 11.9303C79.7083 12.3555 78.8649 12.568 77.9282 12.568C76.9846 12.568 76.1378 12.3537 75.3878 11.9251C74.6377 11.4965 74.0449 10.8761 73.6094 10.0638C73.1739 9.25157 72.9561 8.26821 72.9561 7.11376C72.9561 5.95585 73.1739 4.97077 73.6094 4.1585C74.0449 3.34624 74.6377 2.72754 75.3878 2.3024C76.1378 1.8738 76.9846 1.6595 77.9282 1.6595C78.8649 1.6595 79.7083 1.8738 80.4583 2.3024C81.2119 2.72754 81.8064 3.34624 82.2419 4.1585C82.6808 4.97077 82.9003 5.95585 82.9003 7.11376ZM80.6243 7.11376C80.6243 6.36371 80.5119 5.73118 80.2873 5.21618C80.066 4.70117 79.7532 4.31059 79.3488 4.04444C78.9444 3.7783 78.4709 3.64522 77.9282 3.64522C77.3856 3.64522 76.912 3.7783 76.5076 4.04444C76.1032 4.31059 75.7887 4.70117 75.564 5.21618C75.3428 5.73118 75.2322 6.36371 75.2322 7.11376C75.2322 7.86381 75.3428 8.49634 75.564 9.01135C75.7887 9.52636 76.1032 9.91693 76.5076 10.1831C76.912 10.4492 77.3856 10.5823 77.9282 10.5823C78.4709 10.5823 78.9444 10.4492 79.3488 10.1831C79.7532 9.91693 80.066 9.52636 80.2873 9.01135C80.5119 8.49634 80.6243 7.86381 80.6243 7.11376ZM84.5633 12.4229V1.80467H88.7525C89.5544 1.80467 90.2388 1.94811 90.8056 2.235C91.3759 2.51842 91.8097 2.9211 92.107 3.44302C92.4077 3.96149 92.558 4.57155 92.558 5.27321C92.558 5.97832 92.406 6.58493 92.1018 7.09302C91.7976 7.59766 91.3569 7.98478 90.7797 8.25439C90.2059 8.52399 89.5112 8.65879 88.6955 8.65879H85.8906V6.85453H88.3325C88.7611 6.85453 89.1172 6.79577 89.4006 6.67825C89.684 6.56073 89.8949 6.38445 90.0331 6.14941C90.1748 5.91438 90.2457 5.62231 90.2457 5.27321C90.2457 4.92065 90.1748 4.6234 90.0331 4.38145C89.8949 4.13949 89.6823 3.9563 89.3954 3.83187C89.112 3.70398 88.7542 3.64004 88.3222 3.64004H86.8083V12.4229H84.5633ZM90.2975 7.59075L92.9365 12.4229H90.4583L87.8763 7.59075H90.2975ZM97.9086 12.4229H94.1445V1.80467H97.9397C99.0078 1.80467 99.9272 2.01724 100.698 2.44238C101.469 2.86407 102.062 3.47067 102.476 4.2622C102.895 5.05372 103.104 6.00079 103.104 7.10339C103.104 8.20945 102.895 9.15997 102.476 9.95495C102.062 10.7499 101.465 11.36 100.688 11.7851C99.9133 12.2103 98.987 12.4229 97.9086 12.4229ZM96.3895 10.4993H97.8153C98.4789 10.4993 99.0371 10.3818 99.4899 10.1468C99.9462 9.90829 100.288 9.54018 100.516 9.04245C100.748 8.54127 100.864 7.89492 100.864 7.10339C100.864 6.31878 100.748 5.67761 100.516 5.17988C100.288 4.68216 99.9479 4.31577 99.4951 4.08073C99.0423 3.8457 98.4841 3.72818 97.8205 3.72818H96.3895V10.4993Z" fill="white"/>
<path d="M25.0458 29.4229V15.6047H30.7539C31.7885 15.6047 32.6813 15.7913 33.4325 16.1647C34.1882 16.5335 34.7707 17.0643 35.18 17.757C35.5894 18.4452 35.794 19.2616 35.794 20.2062C35.794 21.1643 35.5849 21.9785 35.1665 22.6487C34.7482 23.3144 34.1545 23.8227 33.3853 24.1736C32.6161 24.5199 31.7053 24.6931 30.6527 24.6931H27.043V22.0617H30.032C30.5357 22.0617 30.9563 21.9965 31.2937 21.866C31.6355 21.7311 31.8942 21.5287 32.0696 21.2588C32.245 20.9844 32.3327 20.6336 32.3327 20.2062C32.3327 19.7789 32.245 19.4258 32.0696 19.1469C31.8942 18.8635 31.6355 18.6521 31.2937 18.5127C30.9518 18.3688 30.5313 18.2968 30.032 18.2968H28.3857V29.4229H25.0458ZM32.8253 23.1075L36.2663 29.4229H32.6229L29.2493 23.1075H32.8253ZM37.6259 29.4229V15.6047H47.2608V18.317H40.9657V21.1508H46.7683V23.8699H40.9657V26.7105H47.2608V29.4229H37.6259ZM49.3525 29.4229V15.6047H55.1145C56.1491 15.6047 57.015 15.7509 57.7122 16.0432C58.4139 16.3356 58.9402 16.7449 59.291 17.2712C59.6464 17.7975 59.824 18.407 59.824 19.0997C59.824 19.626 59.7138 20.096 59.4934 20.5099C59.273 20.9192 58.9694 21.2588 58.5826 21.5287C58.1957 21.7986 57.7482 21.9875 57.2399 22.0954V22.2304C57.7976 22.2574 58.3127 22.4081 58.785 22.6824C59.2618 22.9568 59.6441 23.3392 59.932 23.8295C60.2199 24.3153 60.3638 24.891 60.3638 25.5567C60.3638 26.2989 60.1749 26.9624 59.7971 27.5471C59.4192 28.1274 58.8727 28.5862 58.1575 28.9236C57.4423 29.2564 56.5742 29.4229 55.5531 29.4229H49.3525ZM52.6923 26.7307H54.7569C55.4811 26.7307 56.0141 26.5935 56.356 26.3192C56.7024 26.0448 56.8755 25.6624 56.8755 25.1721C56.8755 24.8168 56.7923 24.5109 56.6259 24.2545C56.4595 23.9936 56.2233 23.7935 55.9174 23.654C55.6116 23.5101 55.245 23.4381 54.8176 23.4381H52.6923V26.7307ZM52.6923 21.2858H54.541C54.9054 21.2858 55.2292 21.2251 55.5126 21.1036C55.796 20.9822 56.0164 20.8067 56.1738 20.5773C56.3358 20.3479 56.4167 20.0713 56.4167 19.7474C56.4167 19.2841 56.2525 18.9198 55.9242 18.6544C55.5958 18.389 55.1528 18.2563 54.595 18.2563H52.6923V21.2858ZM70.3294 15.6047H73.6625V24.5177C73.6625 25.5477 73.4173 26.4451 72.927 27.2098C72.4367 27.97 71.753 28.5592 70.8759 28.9775C69.9988 29.3914 68.9799 29.5983 67.8194 29.5983C66.6454 29.5983 65.6199 29.3914 64.7427 28.9775C63.8656 28.5592 63.1841 27.97 62.6983 27.2098C62.2125 26.4451 61.9696 25.5477 61.9696 24.5177V15.6047H65.3095V24.2275C65.3095 24.7043 65.4129 25.1294 65.6199 25.5028C65.8313 25.8761 66.1259 26.1685 66.5037 26.3799C66.8816 26.5913 67.3201 26.697 67.8194 26.697C68.3187 26.697 68.755 26.5913 69.1284 26.3799C69.5062 26.1685 69.8008 25.8761 70.0123 25.5028C70.2237 25.1294 70.3294 24.7043 70.3294 24.2275V15.6047ZM79.0956 15.6047V29.4229H75.7558V15.6047H79.0956ZM81.1923 29.4229V15.6047H84.5321V26.7105H90.2807V29.4229H81.1923ZM97.1173 29.4229H92.0097V15.6047H97.1105C98.5184 15.6047 99.7307 15.8813 100.747 16.4346C101.768 16.9833 102.555 17.775 103.109 18.8096C103.662 19.8396 103.939 21.0721 103.939 22.507C103.939 23.9464 103.662 25.1834 103.109 26.218C102.56 27.2525 101.775 28.0464 100.754 28.5997C99.7329 29.1485 98.5207 29.4229 97.1173 29.4229ZM95.3495 26.5756H96.9891C97.7628 26.5756 98.4172 26.4451 98.9525 26.1842C99.4923 25.9188 99.8994 25.4893 100.174 24.8955C100.453 24.2973 100.592 23.5011 100.592 22.507C100.592 21.5129 100.453 20.7213 100.174 20.132C99.8949 19.5383 99.4833 19.1109 98.939 18.8501C98.3992 18.5847 97.7335 18.452 96.9419 18.452H95.3495V26.5756Z" fill="white"/>
<path d="M1.18324 38.4229L1.70241 35.2956H2.79574C3.01359 35.2956 3.18716 35.3332 3.31644 35.4086C3.44573 35.4829 3.53429 35.5832 3.58214 35.7094C3.62998 35.8346 3.64067 35.9736 3.6142 36.1263C3.59181 36.2606 3.54956 36.3716 3.48746 36.4591C3.42639 36.5467 3.35309 36.6159 3.26758 36.6668C3.18308 36.7177 3.09503 36.7554 3.00341 36.7798L2.9973 36.8104C3.09096 36.8165 3.18105 36.8501 3.26758 36.9111C3.35411 36.9722 3.42079 37.0598 3.46761 37.1738C3.51444 37.2878 3.52462 37.4273 3.49815 37.5922C3.47169 37.7489 3.41213 37.8899 3.3195 38.0151C3.22686 38.1404 3.09757 38.2396 2.93164 38.3129C2.76571 38.3862 2.55956 38.4229 2.31321 38.4229H1.18324ZM1.6169 38.0869H2.36818C2.61555 38.0869 2.7993 38.0391 2.91942 37.9434C3.04057 37.8467 3.11335 37.7296 3.13778 37.5922C3.15407 37.4863 3.14237 37.3886 3.10266 37.299C3.06398 37.2084 2.99934 37.1361 2.90874 37.0822C2.81915 37.0272 2.70616 36.9997 2.56974 36.9997H1.80014L1.6169 38.0869ZM1.85511 36.6699H2.55753C2.67154 36.6699 2.77843 36.6475 2.8782 36.6027C2.97796 36.5579 3.06143 36.4948 3.12862 36.4133C3.19581 36.3319 3.23755 36.2362 3.25384 36.1263C3.27827 35.9888 3.25078 35.8723 3.17138 35.7766C3.09197 35.6799 2.94844 35.6315 2.74077 35.6315H2.02614L1.85511 36.6699ZM4.23034 35.2956H4.66401L5.29313 36.7554H5.32978L6.43532 35.2956H6.86898L5.43361 37.1341L5.21983 38.4229H4.84114L5.05492 37.1341L4.23034 35.2956ZM10.144 36.1018C10.144 35.9339 10.0885 35.8066 9.97755 35.7201C9.86659 35.6325 9.71643 35.5888 9.52709 35.5888C9.38864 35.5888 9.26394 35.6112 9.15297 35.6559C9.04201 35.7007 8.95141 35.7623 8.88117 35.8407C8.81093 35.9191 8.76766 36.0082 8.75138 36.1079C8.73814 36.1914 8.7468 36.2632 8.77733 36.3232C8.80787 36.3823 8.85114 36.4317 8.90713 36.4714C8.96414 36.51 9.02522 36.5421 9.09037 36.5676C9.15552 36.592 9.21558 36.6118 9.27055 36.6271L9.57595 36.7126C9.6523 36.734 9.7373 36.7635 9.83096 36.8012C9.92461 36.8389 10.0122 36.8903 10.0936 36.9554C10.175 37.0195 10.2371 37.102 10.2799 37.2028C10.3237 37.3036 10.3333 37.4273 10.3089 37.5738C10.2804 37.7428 10.2107 37.8955 10.0997 38.0319C9.98976 38.1684 9.84419 38.2768 9.66299 38.3572C9.4828 38.4376 9.27259 38.4778 9.03234 38.4778C8.80838 38.4778 8.62006 38.4417 8.46736 38.3694C8.31568 38.2971 8.2037 38.1963 8.13142 38.0671C8.06016 37.9378 8.03267 37.7876 8.04896 37.6166H8.43987C8.42969 37.7347 8.4531 37.8324 8.51011 37.9098C8.56712 37.9861 8.64652 38.0431 8.74832 38.0808C8.85012 38.1175 8.96312 38.1358 9.08731 38.1358C9.23187 38.1358 9.36523 38.1124 9.48738 38.0655C9.61056 38.0177 9.71236 37.9515 9.79278 37.867C9.87422 37.7815 9.9241 37.6818 9.94243 37.5677C9.96075 37.4639 9.9465 37.3794 9.89967 37.3143C9.85284 37.2491 9.78515 37.1962 9.69658 37.1555C9.60802 37.1147 9.5108 37.0791 9.40493 37.0486L9.03845 36.9386C8.80635 36.8684 8.62973 36.7681 8.50858 36.6378C8.38846 36.5075 8.3452 36.337 8.37879 36.1263C8.40933 35.9512 8.48314 35.7985 8.6002 35.6682C8.71727 35.5368 8.86234 35.435 9.0354 35.3628C9.20845 35.2895 9.39475 35.2528 9.59427 35.2528C9.79584 35.2528 9.96839 35.2895 10.1119 35.3628C10.2555 35.435 10.3623 35.5353 10.4326 35.6636C10.5028 35.7908 10.5288 35.9369 10.5105 36.1018H10.144ZM11.0842 35.6315L11.1392 35.2956H13.4847L13.4297 35.6315H12.4463L11.9821 38.4229H11.6034L12.0676 35.6315H11.0842ZM13.3129 38.4229H12.9159L14.5833 35.2956H14.9742L15.6034 38.4229H15.2063L14.7116 35.7903H14.6872L13.3129 38.4229ZM13.661 37.2013H15.2613L15.2063 37.5372H13.6061L13.661 37.2013ZM19.0895 35.2956L18.5703 38.4229H18.2038L16.9089 35.9675H16.8784L16.4692 38.4229H16.0905L16.6096 35.2956H16.9761L18.2771 37.7571H18.3077L18.7169 35.2956H19.0895ZM19.3281 38.4229L19.8472 35.2956H21.7224L21.6674 35.6315H20.171L19.9938 36.6882H21.3498L21.2948 37.0241H19.9389L19.7068 38.4229H19.3281ZM24.747 36.8836C24.692 37.2094 24.5866 37.4909 24.4309 37.7281C24.2751 37.9642 24.0848 38.1465 23.8598 38.2747C23.6348 38.402 23.391 38.4656 23.1284 38.4656C22.8576 38.4656 22.627 38.3994 22.4366 38.2671C22.2473 38.1337 22.1119 37.9454 22.0305 37.7021C21.95 37.4578 21.9373 37.1687 21.9923 36.8348C22.0472 36.509 22.1526 36.2281 22.3084 35.9919C22.4641 35.7547 22.655 35.5725 22.881 35.4452C23.107 35.317 23.3523 35.2528 23.617 35.2528C23.8857 35.2528 24.1143 35.3195 24.3026 35.4529C24.492 35.5852 24.6268 35.7735 24.7073 36.0178C24.7887 36.2611 24.8019 36.5497 24.747 36.8836ZM24.3866 36.8348C24.4314 36.5681 24.4248 36.3436 24.3667 36.1614C24.3087 35.9792 24.2125 35.8412 24.0781 35.7476C23.9438 35.6539 23.7839 35.6071 23.5987 35.6071C23.4052 35.6071 23.222 35.6565 23.049 35.7552C22.8759 35.8529 22.7278 35.997 22.6046 36.1873C22.4814 36.3767 22.3974 36.6088 22.3526 36.8836C22.3079 37.1504 22.3145 37.3748 22.3725 37.557C22.4305 37.7393 22.5267 37.8772 22.6611 37.9709C22.7955 38.0645 22.9553 38.1113 23.1406 38.1113C23.334 38.1113 23.5172 38.0625 23.6903 37.9648C23.8633 37.866 24.0115 37.722 24.1346 37.5326C24.2578 37.3423 24.3418 37.1096 24.3866 36.8348ZM25.1272 38.4229L25.6464 35.2956H26.703C26.9474 35.2956 27.1408 35.3368 27.2833 35.4193C27.4268 35.5017 27.524 35.6152 27.5749 35.7598C27.6269 35.9043 27.6376 36.0693 27.607 36.2545C27.5765 36.4378 27.5113 36.6006 27.4116 36.7432C27.3128 36.8857 27.1784 36.9977 27.0084 37.0791C26.8394 37.1605 26.6338 37.2013 26.3915 37.2013H25.5364L25.5975 36.8592H26.4404C26.6073 36.8592 26.7458 36.8348 26.8557 36.7859C26.9657 36.7371 27.0512 36.6673 27.1123 36.5767C27.1734 36.4861 27.2141 36.3787 27.2344 36.2545C27.2548 36.1283 27.2492 36.0189 27.2176 35.9262C27.1871 35.8326 27.1245 35.7603 27.0298 35.7094C26.9362 35.6575 26.8048 35.6315 26.6359 35.6315H25.9701L25.5059 38.4229H25.1272ZM26.8313 37.018L27.3688 38.4229H26.929L26.4037 37.018H26.8313ZM28.8549 38.4229H27.8777L28.3968 35.2956H29.3924C29.6958 35.2956 29.9457 35.3592 30.1422 35.4865C30.3397 35.6137 30.4771 35.7954 30.5545 36.0316C30.6329 36.2678 30.6446 36.5497 30.5896 36.8775C30.5367 37.1992 30.4339 37.4756 30.2812 37.7067C30.1295 37.9368 29.933 38.1139 29.6917 38.2381C29.4515 38.3613 29.1726 38.4229 28.8549 38.4229ZM28.3129 38.0869H28.8672C29.1257 38.0869 29.3487 38.036 29.536 37.9342C29.7243 37.8324 29.876 37.6874 29.991 37.499C30.1071 37.3107 30.1865 37.0872 30.2292 36.8287C30.272 36.5803 30.2679 36.367 30.217 36.1889C30.1671 36.0097 30.0689 35.8723 29.9223 35.7766C29.7767 35.6799 29.5818 35.6315 29.3375 35.6315H28.719L28.3129 38.0869ZM34.6697 36.2729C34.6544 36.17 34.628 36.0779 34.5903 35.9965C34.5537 35.914 34.5048 35.8443 34.4437 35.7873C34.3826 35.7292 34.3088 35.685 34.2223 35.6544C34.1368 35.6229 34.0375 35.6071 33.9245 35.6071C33.7393 35.6071 33.5601 35.6549 33.387 35.7506C33.215 35.8463 33.0659 35.9873 32.9396 36.1736C32.8144 36.3599 32.7294 36.5884 32.6846 36.8592C32.6398 37.13 32.6444 37.3585 32.6984 37.5448C32.7533 37.7311 32.8475 37.8721 32.9809 37.9678C33.1152 38.0635 33.2791 38.1113 33.4726 38.1113C33.6517 38.1113 33.8187 38.0732 33.9734 37.9968C34.1281 37.9195 34.2579 37.8105 34.3628 37.67C34.4676 37.5285 34.5353 37.3621 34.5659 37.1707L34.6758 37.1952H33.7352L33.7963 36.8592H34.9873L34.9263 37.1952C34.8855 37.4537 34.7949 37.6782 34.6544 37.8686C34.514 38.0589 34.3389 38.206 34.1292 38.3099C33.9195 38.4137 33.6904 38.4656 33.442 38.4656C33.1651 38.4656 32.933 38.4005 32.7457 38.2702C32.5584 38.1398 32.4266 37.9546 32.3502 37.7143C32.2739 37.4741 32.2632 37.189 32.3182 36.8592C32.3579 36.6118 32.4271 36.3894 32.5258 36.1919C32.6256 35.9934 32.7477 35.8244 32.8923 35.685C33.0379 35.5455 33.2002 35.4386 33.3794 35.3643C33.5596 35.29 33.7495 35.2528 33.949 35.2528C34.1139 35.2528 34.2635 35.2778 34.3979 35.3276C34.5333 35.3765 34.6499 35.4462 34.7476 35.5368C34.8453 35.6264 34.9212 35.7338 34.9751 35.859C35.0291 35.9832 35.0576 36.1212 35.0606 36.2729H34.6697ZM35.3733 38.4229L35.8925 35.2956H36.9491C37.1934 35.2956 37.3869 35.3368 37.5294 35.4193C37.6729 35.5017 37.7701 35.6152 37.821 35.7598C37.873 35.9043 37.8836 36.0693 37.8531 36.2545C37.8226 36.4378 37.7574 36.6006 37.6577 36.7432C37.5589 36.8857 37.4245 36.9977 37.2545 37.0791C37.0855 37.1605 36.8799 37.2013 36.6376 37.2013H35.7825L35.8436 36.8592H36.6865C36.8534 36.8592 36.9919 36.8348 37.1018 36.7859C37.2118 36.7371 37.2973 36.6673 37.3584 36.5767C37.4194 36.4861 37.4602 36.3787 37.4805 36.2545C37.5009 36.1283 37.4953 36.0189 37.4637 35.9262C37.4332 35.8326 37.3706 35.7603 37.2759 35.7094C37.1823 35.6575 37.0509 35.6315 36.8819 35.6315H36.2162L35.752 38.4229H35.3733ZM37.0774 37.018L37.6149 38.4229H37.1751L36.6498 37.018H37.0774ZM38.252 38.4229H37.855L39.5225 35.2956H39.9134L40.5425 38.4229H40.1455L39.6508 35.7903H39.6263L38.252 38.4229ZM38.6002 37.2013H40.2005L40.1455 37.5372H38.5452L38.6002 37.2013ZM42.0069 38.4229H41.0296L41.5488 35.2956H42.5444C42.8478 35.2956 43.0977 35.3592 43.2942 35.4865C43.4916 35.6137 43.6291 35.7954 43.7064 36.0316C43.7848 36.2678 43.7965 36.5497 43.7416 36.8775C43.6886 37.1992 43.5858 37.4756 43.4331 37.7067C43.2814 37.9368 43.085 38.1139 42.8437 38.2381C42.6034 38.3613 42.3245 38.4229 42.0069 38.4229ZM41.4648 38.0869H42.0191C42.2777 38.0869 42.5006 38.036 42.6879 37.9342C42.8763 37.8324 43.0279 37.6874 43.143 37.499C43.259 37.3107 43.3384 37.0872 43.3812 36.8287C43.4239 36.5803 43.4199 36.367 43.369 36.1889C43.3191 36.0097 43.2209 35.8723 43.0743 35.7766C42.9287 35.6799 42.7337 35.6315 42.4894 35.6315H41.871L41.4648 38.0869ZM46.6917 35.2956H47.0704L46.7283 37.3662C46.6927 37.58 46.6108 37.7708 46.4825 37.9388C46.3542 38.1057 46.1908 38.2376 45.9923 38.3343C45.7938 38.43 45.5719 38.4778 45.3266 38.4778C45.0812 38.4778 44.8756 38.43 44.7097 38.3343C44.5437 38.2376 44.4246 38.1057 44.3524 37.9388C44.2801 37.7708 44.2618 37.58 44.2974 37.3662L44.6394 35.2956H45.0181L44.6791 37.3356C44.6547 37.4883 44.6664 37.6242 44.7142 37.7433C44.7621 37.8614 44.8425 37.9546 44.9555 38.0228C45.0695 38.09 45.2136 38.1236 45.3877 38.1236C45.5617 38.1236 45.717 38.09 45.8534 38.0228C45.9898 37.9546 46.1008 37.8614 46.1863 37.7433C46.2728 37.6242 46.3283 37.4883 46.3527 37.3356L46.6917 35.2956ZM47.4357 38.4229H47.0387L48.7062 35.2956H49.0971L49.7262 38.4229H49.3292L48.8344 35.7903H48.81L47.4357 38.4229ZM47.7839 37.2013H49.3842L49.3292 37.5372H47.7289L47.7839 37.2013ZM50.1412 35.6315L50.1961 35.2956H52.5416L52.4866 35.6315H51.5032L51.039 38.4229H50.6603L51.1246 35.6315H50.1412ZM52.6069 38.4229L53.126 35.2956H55.0134L54.9584 35.6315H53.4498L53.2726 36.6882H54.6836L54.6286 37.0241H53.2177L53.0405 38.0869H54.5736L54.5187 38.4229H52.6069ZM58.4812 36.1018C58.4812 35.9339 58.4257 35.8066 58.3148 35.7201C58.2038 35.6325 58.0536 35.5888 57.8643 35.5888C57.7258 35.5888 57.6011 35.6112 57.4902 35.6559C57.3792 35.7007 57.2886 35.7623 57.2184 35.8407C57.1481 35.9191 57.1049 36.0082 57.0886 36.1079C57.0754 36.1914 57.084 36.2632 57.1145 36.3232C57.1451 36.3823 57.1883 36.4317 57.2443 36.4714C57.3013 36.51 57.3624 36.5421 57.4276 36.5676C57.4927 36.592 57.5528 36.6118 57.6078 36.6271L57.9132 36.7126C57.9895 36.734 58.0745 36.7635 58.1682 36.8012C58.2618 36.8389 58.3494 36.8903 58.4308 36.9554C58.5122 37.0195 58.5743 37.102 58.6171 37.2028C58.6609 37.3036 58.6705 37.4273 58.6461 37.5738C58.6176 37.7428 58.5479 37.8955 58.4369 38.0319C58.327 38.1684 58.1814 38.2768 58.0002 38.3572C57.82 38.4376 57.6098 38.4778 57.3695 38.4778C57.1456 38.4778 56.9573 38.4417 56.8046 38.3694C56.6529 38.2971 56.5409 38.1963 56.4686 38.0671C56.3974 37.9378 56.3699 37.7876 56.3862 37.6166H56.7771C56.7669 37.7347 56.7903 37.8324 56.8473 37.9098C56.9043 37.9861 56.9837 38.0431 57.0855 38.0808C57.1873 38.1175 57.3003 38.1358 57.4245 38.1358C57.5691 38.1358 57.7024 38.1124 57.8246 38.0655C57.9478 38.0177 58.0496 37.9515 58.13 37.867C58.2114 37.7815 58.2613 37.6818 58.2796 37.5677C58.298 37.4639 58.2837 37.3794 58.2369 37.3143C58.1901 37.2491 58.1224 37.1962 58.0338 37.1555C57.9452 37.1147 57.848 37.0791 57.7421 37.0486L57.3757 36.9386C57.1436 36.8684 56.9669 36.7681 56.8458 36.6378C56.7257 36.5075 56.6824 36.337 56.716 36.1263C56.7465 35.9512 56.8203 35.7985 56.9374 35.6682C57.0545 35.5368 57.1995 35.435 57.3726 35.3628C57.5457 35.2895 57.732 35.2528 57.9315 35.2528C58.133 35.2528 58.3056 35.2895 58.4491 35.3628C58.5927 35.435 58.6996 35.5353 58.7698 35.6636C58.84 35.7908 58.866 35.9369 58.8477 36.1018H58.4812ZM61.999 36.2729H61.6264C61.6223 36.1639 61.5999 36.0682 61.5592 35.9858C61.5185 35.9033 61.4635 35.8341 61.3943 35.7781C61.3261 35.7211 61.2477 35.6783 61.1592 35.6498C61.0706 35.6213 60.9759 35.6071 60.8751 35.6071C60.6817 35.6071 60.4985 35.6565 60.3254 35.7552C60.1524 35.8529 60.0042 35.997 59.8811 36.1873C59.7579 36.3767 59.6739 36.6088 59.6291 36.8836C59.5843 37.1504 59.5909 37.3748 59.649 37.557C59.707 37.7393 59.8032 37.8772 59.9376 37.9709C60.0719 38.0645 60.2318 38.1113 60.417 38.1113C60.5239 38.1113 60.6288 38.0971 60.7316 38.0686C60.8354 38.0401 60.9321 37.9978 61.0217 37.9419C61.1123 37.8848 61.1928 37.8151 61.263 37.7327C61.3343 37.6492 61.3902 37.5535 61.431 37.4456H61.8097C61.7537 37.6054 61.6778 37.7484 61.5821 37.8747C61.4875 38.0009 61.378 38.1083 61.2538 38.1969C61.1296 38.2844 60.9958 38.3511 60.8522 38.3969C60.7087 38.4427 60.5596 38.4656 60.4048 38.4656C60.134 38.4656 59.9035 38.3994 59.7131 38.2671C59.5238 38.1337 59.3884 37.9454 59.3069 37.7021C59.2265 37.4578 59.2138 37.1687 59.2687 36.8348C59.3237 36.509 59.4291 36.2281 59.5848 35.9919C59.7406 35.7547 59.9315 35.5725 60.1575 35.4452C60.3834 35.317 60.6288 35.2528 60.8935 35.2528C61.0523 35.2528 61.1983 35.2757 61.3317 35.3215C61.4651 35.3673 61.5811 35.4345 61.6799 35.5231C61.7786 35.6106 61.8555 35.7175 61.9104 35.8438C61.9664 35.969 61.9959 36.112 61.999 36.2729ZM62.2567 38.4229L62.7759 35.2956H63.1545L62.9224 36.6882H64.5899L64.822 35.2956H65.2007L64.6815 38.4229H64.3028L64.5349 37.0241H62.8675L62.6354 38.4229H62.2567ZM68.3349 36.8836C68.2799 37.2094 68.1745 37.4909 68.0188 37.7281C67.863 37.9642 67.6727 38.1465 67.4477 38.2747C67.2227 38.402 66.9789 38.4656 66.7162 38.4656C66.4455 38.4656 66.2149 38.3994 66.0245 38.2671C65.8352 38.1337 65.6998 37.9454 65.6183 37.7021C65.5379 37.4578 65.5252 37.1687 65.5802 36.8348C65.6351 36.509 65.7405 36.2281 65.8963 35.9919C66.052 35.7547 66.2429 35.5725 66.4689 35.4452C66.6949 35.317 66.9402 35.2528 67.2049 35.2528C67.4736 35.2528 67.7022 35.3195 67.8905 35.4529C68.0798 35.5852 68.2147 35.7735 68.2952 36.0178C68.3766 36.2611 68.3898 36.5497 68.3349 36.8836ZM67.9745 36.8348C68.0193 36.5681 68.0127 36.3436 67.9546 36.1614C67.8966 35.9792 67.8004 35.8412 67.666 35.7476C67.5317 35.6539 67.3718 35.6071 67.1866 35.6071C66.9931 35.6071 66.8099 35.6565 66.6368 35.7552C66.4638 35.8529 66.3157 35.997 66.1925 36.1873C66.0693 36.3767 65.9853 36.6088 65.9405 36.8836C65.8957 37.1504 65.9024 37.3748 65.9604 37.557C66.0184 37.7393 66.1146 37.8772 66.249 37.9709C66.3834 38.0645 66.5432 38.1113 66.7285 38.1113C66.9219 38.1113 67.1051 38.0625 67.2782 37.9648C67.4512 37.866 67.5994 37.722 67.7225 37.5326C67.8457 37.3423 67.9297 37.1096 67.9745 36.8348ZM71.6102 36.8836C71.5553 37.2094 71.4499 37.4909 71.2942 37.7281C71.1384 37.9642 70.948 38.1465 70.7231 38.2747C70.4981 38.402 70.2543 38.4656 69.9916 38.4656C69.7209 38.4656 69.4903 38.3994 69.2999 38.2671C69.1106 38.1337 68.9752 37.9454 68.8937 37.7021C68.8133 37.4578 68.8006 37.1687 68.8556 36.8348C68.9105 36.509 69.0159 36.2281 69.1716 35.9919C69.3274 35.7547 69.5183 35.5725 69.7443 35.4452C69.9703 35.317 70.2156 35.2528 70.4803 35.2528C70.749 35.2528 70.9776 35.3195 71.1659 35.4529C71.3552 35.5852 71.4901 35.7735 71.5705 36.0178C71.652 36.2611 71.6652 36.5497 71.6102 36.8836ZM71.2499 36.8348C71.2947 36.5681 71.2881 36.3436 71.23 36.1614C71.172 35.9792 71.0758 35.8412 70.9414 35.7476C70.8071 35.6539 70.6472 35.6071 70.462 35.6071C70.2685 35.6071 70.0853 35.6565 69.9122 35.7552C69.7392 35.8529 69.5911 35.997 69.4679 36.1873C69.3447 36.3767 69.2607 36.6088 69.2159 36.8836C69.1711 37.1504 69.1778 37.3748 69.2358 37.557C69.2938 37.7393 69.39 37.8772 69.5244 37.9709C69.6588 38.0645 69.8186 38.1113 70.0039 38.1113C70.1973 38.1113 70.3805 38.0625 70.5536 37.9648C70.7266 37.866 70.8747 37.722 70.9979 37.5326C71.1211 37.3423 71.2051 37.1096 71.2499 36.8348ZM71.9905 38.4229L72.5096 35.2956H72.8883L72.4241 38.0869H73.8778L73.8229 38.4229H71.9905ZM78.5138 36.8836C78.4588 37.2094 78.3534 37.4909 78.1977 37.7281C78.0419 37.9642 77.8516 38.1465 77.6266 38.2747C77.4016 38.402 77.1578 38.4656 76.8952 38.4656C76.6244 38.4656 76.3938 38.3994 76.2034 38.2671C76.0141 38.1337 75.8787 37.9454 75.7973 37.7021C75.7168 37.4578 75.7041 37.1687 75.7591 36.8348C75.814 36.509 75.9194 36.2281 76.0752 35.9919C76.2309 35.7547 76.4218 35.5725 76.6478 35.4452C76.8738 35.317 77.1191 35.2528 77.3838 35.2528C77.6525 35.2528 77.8811 35.3195 78.0694 35.4529C78.2588 35.5852 78.3936 35.7735 78.4741 36.0178C78.5555 36.2611 78.5687 36.5497 78.5138 36.8836ZM78.1534 36.8348C78.1982 36.5681 78.1916 36.3436 78.1335 36.1614C78.0755 35.9792 77.9793 35.8412 77.8449 35.7476C77.7106 35.6539 77.5507 35.6071 77.3655 35.6071C77.1721 35.6071 76.9888 35.6565 76.8158 35.7552C76.6427 35.8529 76.4946 35.997 76.3714 36.1873C76.2482 36.3767 76.1642 36.6088 76.1194 36.8836C76.0747 37.1504 76.0813 37.3748 76.1393 37.557C76.1973 37.7393 76.2935 37.8772 76.4279 37.9709C76.5623 38.0645 76.7221 38.1113 76.9074 38.1113C77.1008 38.1113 77.284 38.0625 77.4571 37.9648C77.6301 37.866 77.7783 37.722 77.9014 37.5326C78.0246 37.3423 78.1086 37.1096 78.1534 36.8348ZM78.894 38.4229L79.4132 35.2956H81.2883L81.2333 35.6315H79.7369L79.5598 36.6882H80.9157L80.8607 37.0241H79.5048L79.2727 38.4229H78.894ZM82.6271 38.4229L83.1463 35.2956H84.2396C84.4574 35.2956 84.631 35.3332 84.7603 35.4086C84.8896 35.4829 84.9781 35.5832 85.026 35.7094C85.0738 35.8346 85.0845 35.9736 85.0581 36.1263C85.0357 36.2606 84.9934 36.3716 84.9313 36.4591C84.8702 36.5467 84.7969 36.6159 84.7114 36.6668C84.6269 36.7177 84.5389 36.7554 84.4473 36.7798L84.4411 36.8104C84.5348 36.8165 84.6249 36.8501 84.7114 36.9111C84.798 36.9722 84.8646 37.0598 84.9115 37.1738C84.9583 37.2878 84.9685 37.4273 84.942 37.5922C84.9155 37.7489 84.856 37.8899 84.7633 38.0151C84.6707 38.1404 84.5414 38.2396 84.3755 38.3129C84.2096 38.3862 84.0034 38.4229 83.7571 38.4229H82.6271ZM83.0608 38.0869H83.812C84.0594 38.0869 84.2431 38.0391 84.3633 37.9434C84.4844 37.8467 84.5572 37.7296 84.5816 37.5922C84.5979 37.4863 84.5862 37.3886 84.5465 37.299C84.5078 37.2084 84.4432 37.1361 84.3526 37.0822C84.263 37.0272 84.15 36.9997 84.0136 36.9997H83.244L83.0608 38.0869ZM83.299 36.6699H84.0014C84.1154 36.6699 84.2223 36.6475 84.322 36.6027C84.4218 36.5579 84.5053 36.4948 84.5725 36.4133C84.6397 36.3319 84.6814 36.2362 84.6977 36.1263C84.7221 35.9888 84.6946 35.8723 84.6152 35.7766C84.5358 35.6799 84.3923 35.6315 84.1846 35.6315H83.47L83.299 36.6699ZM87.9952 35.2956H88.3739L88.0319 37.3662C87.9962 37.58 87.9143 37.7708 87.786 37.9388C87.6578 38.1057 87.4944 38.2376 87.2959 38.3343C87.0974 38.43 86.8754 38.4778 86.6301 38.4778C86.3848 38.4778 86.1791 38.43 86.0132 38.3343C85.8473 38.2376 85.7282 38.1057 85.6559 37.9388C85.5836 37.7708 85.5653 37.58 85.6009 37.3662L85.9429 35.2956H86.3216L85.9826 37.3356C85.9582 37.4883 85.9699 37.6242 86.0178 37.7433C86.0656 37.8614 86.146 37.9546 86.259 38.0228C86.373 38.09 86.5171 38.1236 86.6912 38.1236C86.8652 38.1236 87.0205 38.09 87.1569 38.0228C87.2933 37.9546 87.4043 37.8614 87.4898 37.7433C87.5763 37.6242 87.6318 37.4883 87.6562 37.3356L87.9952 35.2956ZM90.706 36.1018C90.706 35.9339 90.6505 35.8066 90.5396 35.7201C90.4286 35.6325 90.2784 35.5888 90.0891 35.5888C89.9507 35.5888 89.8259 35.6112 89.715 35.6559C89.604 35.7007 89.5134 35.7623 89.4432 35.8407C89.3729 35.9191 89.3297 36.0082 89.3134 36.1079C89.3002 36.1914 89.3088 36.2632 89.3393 36.3232C89.3699 36.3823 89.4132 36.4317 89.4691 36.4714C89.5261 36.51 89.5872 36.5421 89.6524 36.5676C89.7175 36.592 89.7776 36.6118 89.8326 36.6271L90.138 36.7126C90.2143 36.734 90.2993 36.7635 90.393 36.8012C90.4866 36.8389 90.5742 36.8903 90.6556 36.9554C90.7371 37.0195 90.7991 37.102 90.8419 37.2028C90.8857 37.3036 90.8953 37.4273 90.8709 37.5738C90.8424 37.7428 90.7727 37.8955 90.6617 38.0319C90.5518 38.1684 90.4062 38.2768 90.225 38.3572C90.0448 38.4376 89.8346 38.4778 89.5944 38.4778C89.3704 38.4778 89.1821 38.4417 89.0294 38.3694C88.8777 38.2971 88.7657 38.1963 88.6934 38.0671C88.6222 37.9378 88.5947 37.7876 88.611 37.6166H89.0019C88.9917 37.7347 89.0151 37.8324 89.0721 37.9098C89.1291 37.9861 89.2085 38.0431 89.3103 38.0808C89.4121 38.1175 89.5251 38.1358 89.6493 38.1358C89.7939 38.1358 89.9272 38.1124 90.0494 38.0655C90.1726 38.0177 90.2744 37.9515 90.3548 37.867C90.4362 37.7815 90.4861 37.6818 90.5044 37.5677C90.5228 37.4639 90.5085 37.3794 90.4617 37.3143C90.4149 37.2491 90.3472 37.1962 90.2586 37.1555C90.17 37.1147 90.0728 37.0791 89.9669 37.0486L89.6005 36.9386C89.3684 36.8684 89.1917 36.7681 89.0706 36.6378C88.9505 36.5075 88.9072 36.337 88.9408 36.1263C88.9713 35.9512 89.0451 35.7985 89.1622 35.6682C89.2793 35.5368 89.4243 35.435 89.5974 35.3628C89.7705 35.2895 89.9568 35.2528 90.1563 35.2528C90.3578 35.2528 90.5304 35.2895 90.6739 35.3628C90.8175 35.435 90.9244 35.5353 90.9946 35.6636C91.0648 35.7908 91.0908 35.9369 91.0725 36.1018H90.706ZM92.2509 35.2956L91.7318 38.4229H91.3531L91.8722 35.2956H92.2509ZM95.4901 35.2956L94.9709 38.4229H94.6044L93.3095 35.9675H93.279L92.8697 38.4229H92.4911L93.0102 35.2956H93.3767L94.6777 37.7571H94.7082L95.1175 35.2956H95.4901ZM95.7286 38.4229L96.2478 35.2956H98.1352L98.0802 35.6315H96.5715L96.3944 36.6882H97.8054L97.7504 37.0241H96.3394L96.1623 38.0869H97.6954L97.6404 38.4229H95.7286ZM100.394 36.1018C100.394 35.9339 100.338 35.8066 100.227 35.7201C100.116 35.6325 99.966 35.5888 99.7767 35.5888C99.6383 35.5888 99.5135 35.6112 99.4026 35.6559C99.2916 35.7007 99.201 35.7623 99.1308 35.8407C99.0605 35.9191 99.0173 36.0082 99.001 36.1079C98.9878 36.1914 98.9964 36.2632 99.0269 36.3232C99.0575 36.3823 99.1008 36.4317 99.1567 36.4714C99.2137 36.51 99.2748 36.5421 99.34 36.5676C99.4051 36.592 99.4652 36.6118 99.5202 36.6271L99.8256 36.7126C99.9019 36.734 99.9869 36.7635 100.081 36.8012C100.174 36.8389 100.262 36.8903 100.343 36.9554C100.425 37.0195 100.487 37.102 100.53 37.2028C100.573 37.3036 100.583 37.4273 100.559 37.5738C100.53 37.7428 100.46 37.8955 100.349 38.0319C100.239 38.1684 100.094 38.2768 99.9126 38.3572C99.7324 38.4376 99.5222 38.4778 99.282 38.4778C99.058 38.4778 98.8697 38.4417 98.717 38.3694C98.5653 38.2971 98.4533 38.1963 98.381 38.0671C98.3098 37.9378 98.2823 37.7876 98.2986 37.6166H98.6895C98.6793 37.7347 98.7027 37.8324 98.7597 37.9098C98.8167 37.9861 98.8961 38.0431 98.9979 38.0808C99.0997 38.1175 99.2127 38.1358 99.3369 38.1358C99.4815 38.1358 99.6148 38.1124 99.737 38.0655C99.8602 38.0177 99.962 37.9515 100.042 37.867C100.124 37.7815 100.174 37.6818 100.192 37.5677C100.21 37.4639 100.196 37.3794 100.149 37.3143C100.102 37.2491 100.035 37.1962 99.9462 37.1555C99.8576 37.1147 99.7604 37.0791 99.6545 37.0486L99.2881 36.9386C99.056 36.8684 98.8793 36.7681 98.7582 36.6378C98.6381 36.5075 98.5948 36.337 98.6284 36.1263C98.6589 35.9512 98.7327 35.7985 98.8498 35.6682C98.9669 35.5368 99.1119 35.435 99.285 35.3628C99.4581 35.2895 99.6444 35.2528 99.8439 35.2528C100.045 35.2528 100.218 35.2895 100.362 35.3628C100.505 35.435 100.612 35.5353 100.682 35.6636C100.752 35.7908 100.778 35.9369 100.76 36.1018H100.394ZM103.136 36.1018C103.136 35.9339 103.08 35.8066 102.969 35.7201C102.858 35.6325 102.708 35.5888 102.519 35.5888C102.38 35.5888 102.256 35.6112 102.145 35.6559C102.034 35.7007 101.943 35.7623 101.873 35.8407C101.803 35.9191 101.759 36.0082 101.743 36.1079C101.73 36.1914 101.739 36.2632 101.769 36.3232C101.8 36.3823 101.843 36.4317 101.899 36.4714C101.956 36.51 102.017 36.5421 102.082 36.5676C102.147 36.592 102.207 36.6118 102.262 36.6271L102.568 36.7126C102.644 36.734 102.729 36.7635 102.823 36.8012C102.916 36.8389 103.004 36.8903 103.085 36.9554C103.167 37.0195 103.229 37.102 103.272 37.2028C103.315 37.3036 103.325 37.4273 103.301 37.5738C103.272 37.7428 103.202 37.8955 103.091 38.0319C102.981 38.1684 102.836 38.2768 102.655 38.3572C102.475 38.4376 102.264 38.4778 102.024 38.4778C101.8 38.4778 101.612 38.4417 101.459 38.3694C101.307 38.2971 101.195 38.1963 101.123 38.0671C101.052 37.9378 101.024 37.7876 101.041 37.6166H101.432C101.421 37.7347 101.445 37.8324 101.502 37.9098C101.559 37.9861 101.638 38.0431 101.74 38.0808C101.842 38.1175 101.955 38.1358 102.079 38.1358C102.224 38.1358 102.357 38.1124 102.479 38.0655C102.602 38.0177 102.704 37.9515 102.784 37.867C102.866 37.7815 102.916 37.6818 102.934 37.5677C102.952 37.4639 102.938 37.3794 102.891 37.3143C102.845 37.2491 102.777 37.1962 102.688 37.1555C102.6 37.1147 102.503 37.0791 102.397 37.0486L102.03 36.9386C101.798 36.8684 101.621 36.7681 101.5 36.6378C101.38 36.5075 101.337 36.337 101.37 36.1263C101.401 35.9512 101.475 35.7985 101.592 35.6682C101.709 35.5368 101.854 35.435 102.027 35.3628C102.2 35.2895 102.386 35.2528 102.586 35.2528C102.788 35.2528 102.96 35.2895 103.104 35.3628C103.247 35.435 103.354 35.5353 103.424 35.6636C103.495 35.7908 103.52 35.9369 103.502 36.1018H103.136Z" fill="white"/>
</svg>
